<mxfile host="app.diagrams.net" modified="2023-04-16T14:37:06.914Z" agent="Mozilla/5.0 (Windows NT 10.0; Win64; x64) AppleWebKit/537.36 (KHTML, like Gecko) Chrome/111.0.0.0 Safari/537.36" version="21.1.8" etag="TxHi3zeqyGOMaZGBYuHt" type="github">
  <diagram name="Page-1" id="SdjKT5RqGN591s1c-5hV">
    <mxGraphModel>
      <root>
        <mxCell id="0" />
        <mxCell id="1" parent="0" />
      </root>
    </mxGraphModel>
  </diagram>
</mxfile>
